<svg id="visual" viewBox="0 0 900 600" width="900" height="600" xmlns="http://www.w3.org/2000/svg" xmlns:xlink="http://www.w3.org/1999/xlink" version="1.1"><rect x="0" y="0" width="900" height="600" fill="#1e1b4b"></rect><path d="M0 486L16.7 485C33.3 484 66.7 482 100 483.8C133.3 485.7 166.7 491.3 200 496.2C233.3 501 266.7 505 300 505.5C333.3 506 366.7 503 400 506.2C433.3 509.3 466.7 518.7 500 513.2C533.3 507.7 566.7 487.3 600 484.7C633.3 482 666.7 497 700 506.8C733.3 516.7 766.7 521.3 800 518.5C833.3 515.7 866.7 505.3 883.3 500.2L900 495L900 601L883.3 601C866.7 601 833.3 601 800 601C766.7 601 733.3 601 700 601C666.7 601 633.3 601 600 601C566.7 601 533.3 601 500 601C466.7 601 433.3 601 400 601C366.7 601 333.3 601 300 601C266.7 601 233.3 601 200 601C166.7 601 133.3 601 100 601C66.7 601 33.3 601 16.7 601L0 601Z" fill="#3730a3"></path><path d="M0 524L16.7 519.8C33.3 515.7 66.7 507.3 100 507.7C133.3 508 166.7 517 200 519.2C233.3 521.3 266.7 516.7 300 519.7C333.3 522.7 366.7 533.3 400 535.3C433.3 537.3 466.7 530.7 500 522.5C533.3 514.3 566.7 504.7 600 502.3C633.3 500 666.7 505 700 510.5C733.3 516 766.7 522 800 522.7C833.3 523.3 866.7 518.7 883.3 516.3L900 514L900 601L883.3 601C866.7 601 833.3 601 800 601C766.7 601 733.3 601 700 601C666.7 601 633.3 601 600 601C566.7 601 533.3 601 500 601C466.7 601 433.3 601 400 601C366.7 601 333.3 601 300 601C266.7 601 233.3 601 200 601C166.7 601 133.3 601 100 601C66.7 601 33.3 601 16.7 601L0 601Z" fill="#433bc3"></path><path d="M0 572L16.7 569.2C33.3 566.3 66.7 560.7 100 558.8C133.3 557 166.7 559 200 555.5C233.3 552 266.7 543 300 538.5C333.3 534 366.7 534 400 537.7C433.3 541.3 466.7 548.7 500 553.8C533.3 559 566.7 562 600 563C633.3 564 666.7 563 700 564.8C733.3 566.7 766.7 571.3 800 573.5C833.3 575.7 866.7 575.3 883.3 575.2L900 575L900 601L883.3 601C866.7 601 833.3 601 800 601C766.7 601 733.3 601 700 601C666.7 601 633.3 601 600 601C566.7 601 533.3 601 500 601C466.7 601 433.3 601 400 601C366.7 601 333.3 601 300 601C266.7 601 233.3 601 200 601C166.7 601 133.3 601 100 601C66.7 601 33.3 601 16.7 601L0 601Z" fill="#4f46e5"></path></svg>