<?xml version="1.0" standalone="no"?>
<!DOCTYPE svg PUBLIC "-//W3C//DTD SVG 20010904//EN"
 "http://www.w3.org/TR/2001/REC-SVG-20010904/DTD/svg10.dtd">
<svg version="1.0" xmlns="http://www.w3.org/2000/svg"
 width="512.000000pt" height="512.000000pt" viewBox="0 0 512.000000 512.000000"
 preserveAspectRatio="xMidYMid meet">
<metadata>
Created by potrace 1.14, written by Peter Selinger 2001-2017
</metadata>
<g transform="translate(0.000000,512.000000) scale(0.100000,-0.100000)"
fill="#000000" stroke="none">
<path d="M1768 4623 l-3 -258 -60 -11 c-484 -87 -881 -494 -948 -974 l-4 -25
-251 -3 c-139 -1 -252 -6 -253 -10 -1 -4 -2 -364 -3 -799 l-1 -793 254 -2 254
-3 4 -25 c8 -59 44 -184 73 -257 144 -361 495 -648 875 -714 l65 -11 0 -257 0
-256 800 0 800 0 0 256 0 257 66 11 c343 60 659 290 826 601 50 94 94 213 115
313 l18 87 252 0 253 0 0 800 0 800 -254 0 -254 0 -7 48 c-4 26 -7 48 -7 49 2
13 -44 150 -74 220 -35 83 -115 217 -163 273 -202 237 -442 372 -751 424 -13
3 -15 41 -18 259 l-2 257 -800 0 -800 0 -2 -257z m1409 63 c8 -8 10 -1363 2
-1384 -5 -12 -545 -559 -604 -611 -3 -3 -144 135 -313 305 l-307 309 0 685 c1
377 4 690 7 695 7 11 1205 11 1215 1z m-1041 -1828 l305 -304 -310 -310 -309
-309 -688 1 c-379 1 -692 2 -695 3 -10 2 -8 1215 1 1221 5 3 319 5 700 4 l692
-1 304 -305z m2578 -306 c1 -337 -1 -613 -4 -613 -3 -1 -315 -2 -695 -3 l-690
-2 -309 308 c-170 169 -307 310 -305 313 21 24 552 555 579 579 l35 31 694 -1
695 -1 0 -611z m-1530 -1441 l1 -700 -614 2 -615 2 0 693 -1 693 309 310 310
310 305 -305 304 -305 1 -700z"/>
<path d="M2453 4500 c-272 -75 -404 -388 -268 -639 53 -96 176 -194 275 -217
334 -79 628 221 539 550 -30 113 -128 230 -230 278 -104 49 -207 58 -316 28z"/>
<path d="M960 2986 c-341 -70 -468 -502 -220 -746 91 -90 198 -133 323 -129
384 12 573 473 307 748 -107 110 -260 158 -410 127z"/>
<path d="M4011 2989 c-77 -15 -168 -65 -230 -126 -272 -273 -87 -738 300 -752
197 -7 381 124 436 309 84 282 -114 561 -406 574 -31 2 -76 -1 -100 -5z"/>
<path d="M2481 1464 c-306 -63 -448 -417 -274 -681 147 -224 463 -260 665 -78
185 168 192 459 14 637 -109 109 -254 152 -405 122z"/>
</g>
</svg>
