<?xml version="1.0" standalone="no"?>
<!DOCTYPE svg PUBLIC "-//W3C//DTD SVG 20010904//EN"
 "http://www.w3.org/TR/2001/REC-SVG-20010904/DTD/svg10.dtd">
<svg version="1.0" xmlns="http://www.w3.org/2000/svg"
 width="500.000000pt" height="500.000000pt" viewBox="0 0 500.000000 500.000000"
 preserveAspectRatio="xMidYMid meet">
<metadata>
Created by potrace 1.14, written by Peter Selinger 2001-2017
</metadata>
<g transform="translate(0.000000,500.000000) scale(0.100000,-0.100000)"
fill="#000000" stroke="none">
<path d="M1369 3173 c-85 -52 -78 -182 11 -228 40 -21 266 -21 315 -1 92 39
99 173 12 226 -28 17 -50 20 -172 20 -112 0 -145 -4 -166 -17z"/>
<path d="M1910 3173 c-77 -53 -85 -145 -19 -209 l30 -29 477 -5 c368 -4 482
-8 500 -18 36 -20 62 -72 62 -121 0 -37 -6 -49 -37 -81 l-38 -37 -318 -6
c-338 -7 -357 -10 -391 -59 -10 -13 -16 -43 -16 -74 0 -43 5 -57 28 -82 43
-46 83 -52 341 -52 l233 0 39 -39 c33 -33 39 -45 39 -82 0 -26 -8 -57 -20 -77
-36 -59 -54 -62 -411 -62 -266 0 -326 -3 -353 -15 -91 -44 -87 -184 8 -229 34
-16 92 -17 769 -14 814 4 766 0 907 74 127 66 226 168 291 299 91 185 90 383
-2 572 -73 148 -202 265 -363 327 l-81 31 -825 3 c-769 2 -827 1 -850 -15z"/>
<path d="M984 2656 c-69 -31 -100 -109 -67 -173 39 -74 14 -70 539 -78 322 -4
483 -3 510 4 83 22 125 109 89 184 -35 75 -13 72 -555 74 -391 2 -491 0 -516
-11z"/>
<path d="M1719 2123 c-86 -53 -75 -191 18 -229 101 -43 206 56 171 161 -24 74
-123 109 -189 68z"/>
</g>
</svg>
